<?xml version="1.0" encoding="UTF-8"?>
<svg viewBox="0 0 400 400" width="400" height="400" xmlns="http://www.w3.org/2000/svg">
  <path d="M 20 20 L 380 20 A 360 360 0 0 0 92 164 L 20 20 Z" fill="#3D5444"/><path d="M 20 20 L 92 164 A 360 360 0 0 0 20 380 L 20 20 Z" fill="#5D7A5E"/><path d="M 92 164 A 360 360 0 0 1 380 20 A 180 180 0 0 0 236 308 L 200 380 L 92 164 Z" fill="#87A188"/><path d="M 92 164 L 200 380 L 20 380 A 360 360 0 0 1 92 164 Z" fill="#B8C7B6"/><path d="M 380 20 L 236 308 A 180 180 0 0 1 380 20 Z" fill="#9B5A44"/><rect x="20" y="20" width="360" height="360" fill="none" stroke="#3D5444" stroke-width="1.6"/><path d="M 380 20 A 180 180 0 0 0 380 380" fill="none" stroke="#3D5444" stroke-width="2.5" stroke-linecap="round"/><line x1="20" y1="20" x2="200" y2="380" stroke="#3D5444" stroke-width="2.5" stroke-linecap="round"/><line x1="380" y1="20" x2="200" y2="380" stroke="#3D5444" stroke-width="2.5" stroke-linecap="round"/>
</svg>
